<svg width="200" height="200" viewBox="0 0 200 200" fill="none" xmlns="http://www.w3.org/2000/svg">
<path fill-rule="evenodd" clip-rule="evenodd" d="M95.8759 1.9542L95.7043 0L87.1719 0.746123L88.4628 15.61L97.001 14.8639L96.8294 12.9096L90.3575 13.5017L89.9252 8.57483L95.6982 8.07144L95.5325 6.11724L89.7535 6.62063L89.3983 2.54639L95.8759 1.9542ZM84.6491 16.2434L79.4149 11.0854L76.9399 11.642L78.3018 17.6943L76.2885 18.1501L73.0023 3.58835L78.3668 2.40399C78.9291 2.26114 79.5144 2.2317 80.0881 2.31743C80.662 2.40315 81.213 2.60234 81.7091 2.90333C82.2051 3.2043 82.6363 3.60105 82.9775 4.07046C83.3185 4.53985 83.5628 5.07249 83.6959 5.63729C83.9568 6.56634 83.8856 7.55736 83.4943 8.43948C83.103 9.32159 82.4162 10.0395 81.5524 10.4695L87.0473 15.7459L84.6491 16.2434ZM76.5075 9.7293L79.8115 8.98315C80.1246 8.91981 80.4217 8.79457 80.6857 8.61481C80.9496 8.43504 81.1751 8.20434 81.3486 7.93628C81.5224 7.6682 81.6405 7.36814 81.6966 7.05371C81.7527 6.73929 81.7456 6.41686 81.6753 6.10529C81.6051 5.79371 81.4734 5.49929 81.288 5.2393C81.1024 4.97934 80.867 4.75901 80.5951 4.59132C80.3234 4.42362 80.0209 4.31189 79.7052 4.2627C79.3896 4.21351 79.0675 4.22786 78.7576 4.30489L75.4299 5.05104L76.5075 9.7293ZM71.9534 15.9104C72.2556 14.453 72.12 12.9388 71.5635 11.5583C71.1946 10.6299 70.6439 9.78444 69.9441 9.07154C69.2441 8.35866 68.409 7.79262 67.4875 7.40661C66.5661 7.0206 65.5768 6.82235 64.5778 6.82352C63.5786 6.8247 62.5899 7.02527 61.6694 7.41344C60.2951 7.98517 59.1206 8.95068 58.2941 10.1884C57.4673 11.4261 57.0252 12.8808 57.0234 14.3691C57.0215 15.8575 57.4601 17.3132 58.2837 18.5529C59.1075 19.7928 60.2795 20.761 61.6523 21.3361C63.0251 21.9111 64.5375 22.0672 65.9989 21.7847C67.4601 21.5024 68.8053 20.7939 69.8647 19.7485C70.9244 18.7033 71.651 17.3678 71.9534 15.9104ZM66.7911 19.7414C63.9549 20.9196 60.8166 19.4928 59.5732 16.5321L59.5495 16.5084C59.2775 15.8475 59.1381 15.1394 59.1395 14.4246C59.141 13.7097 59.2834 13.0024 59.5583 12.3425C59.8332 11.6827 60.2354 11.0835 60.7419 10.5792C61.2482 10.0748 61.8491 9.6751 62.5101 9.40295C63.171 9.1308 63.8791 8.99152 64.5939 8.99301C65.3086 8.99451 66.0163 9.13678 66.6759 9.4117C67.3357 9.68661 67.9349 10.0888 68.4394 10.5953C68.9437 11.1017 69.3434 11.7026 69.6156 12.3635C70.853 15.3596 69.6275 18.563 66.7911 19.7414ZM149.605 13.0744L148.711 14.8214L142.926 11.8605L141.055 15.4965L146.212 18.1495L145.312 19.9259L140.16 17.273L137.881 21.6315L143.66 24.5924L142.766 26.3334L135.145 22.4132L141.966 9.14824L149.605 13.0744ZM151.997 32.6L152.186 25.4939L145.579 28.0876L143.625 26.7138L152.234 23.362L152.465 14.6865L154.473 16.1017L154.295 22.5389L160.316 20.2056L162.283 21.5914L154.253 24.7062L153.986 33.9799L151.997 32.6ZM168.197 35.4349C168.744 35.1929 169.235 34.8428 169.643 34.4054C170.054 33.9748 170.376 33.4646 170.585 32.9061C170.795 32.3475 170.889 31.7522 170.861 31.1562C170.834 30.5604 170.685 29.9761 170.424 29.4395C170.165 28.9028 169.796 28.4246 169.346 28.0343L165.201 24.0906L154.94 34.9265L156.444 36.3475L160.589 31.9657L163.253 34.4883C163.671 34.9149 164.171 35.2523 164.724 35.48C165.275 35.7078 165.869 35.8211 166.465 35.8134C167.062 35.8057 167.651 35.677 168.197 35.4349ZM168.684 32.1629C168.566 32.4734 168.386 32.7568 168.156 32.9961C167.929 33.2376 167.655 33.4309 167.351 33.5648C167.048 33.6985 166.72 33.77 166.387 33.7749C166.056 33.7799 165.726 33.7183 165.419 33.5935C165.111 33.469 164.831 33.2839 164.597 33.0495L161.939 30.5329L165.355 26.927L168.014 29.4434C168.262 29.6635 168.464 29.9317 168.606 30.2318C168.749 30.5319 168.829 30.8576 168.842 31.1895C168.855 31.5214 168.801 31.8525 168.684 32.1629ZM176.486 35.632L166.385 43.7509L170.975 49.4654L169.446 50.6971L163.561 43.3659L175.185 34.0211L176.486 35.632ZM179.501 60.9596C180.986 61.0666 182.47 60.7323 183.765 59.9982C184.635 59.5099 185.401 58.8523 186.015 58.0641C186.629 57.2761 187.08 56.3734 187.341 55.4089C187.601 54.4444 187.667 53.4375 187.534 52.4473C187.401 51.457 187.071 50.5034 186.565 49.642C185.818 48.3556 184.704 47.3194 183.367 46.6635C182.033 46.0077 180.533 45.762 179.056 45.957C177.581 46.152 176.195 46.7791 175.076 47.7595C173.956 48.7399 173.151 50.0295 172.763 51.4661C172.375 52.9029 172.419 54.4225 172.891 55.8337C173.366 57.2449 174.246 58.4846 175.423 59.3966C176.599 60.3086 178.018 60.8525 179.501 60.9596ZM175.03 56.3627C173.485 53.71 174.451 50.4119 177.251 48.7835H177.262C177.88 48.3967 178.57 48.138 179.289 48.0228C180.009 47.9075 180.744 47.9381 181.451 48.1129C182.159 48.2876 182.824 48.6028 183.406 49.0396C183.99 49.4765 184.48 50.0261 184.846 50.6559C185.214 51.2858 185.449 51.9829 185.541 52.7057C185.632 53.4286 185.577 54.1628 185.38 54.8641C185.182 55.5656 184.846 56.22 184.39 56.7889C183.934 57.3575 183.37 57.8286 182.728 58.1746C179.915 59.8029 176.576 59.0154 175.03 56.3627ZM180.875 73.5967L185.31 67.7165L184.428 65.3476L178.614 67.5091L177.89 65.5667L191.876 60.3672L193.789 65.5254C194.006 66.0635 194.117 66.64 194.11 67.221C194.101 67.802 193.98 68.3757 193.747 68.9085C193.518 69.4414 193.181 69.9225 192.761 70.3239C192.341 70.7253 191.844 71.0386 191.301 71.2458C190.417 71.629 189.425 71.6914 188.5 71.4222C187.573 71.153 186.77 70.5691 186.227 69.7713L181.739 75.9181L180.875 73.5967ZM186.262 64.6548L187.447 67.8347C187.547 68.1441 187.71 68.4295 187.925 68.6732C188.139 68.917 188.404 69.1139 188.696 69.2515C188.991 69.3894 189.31 69.4651 189.635 69.4741C189.961 69.4829 190.285 69.4249 190.585 69.3035C190.885 69.1914 191.159 69.0199 191.39 68.7991C191.622 68.5785 191.805 68.3134 191.933 68.0195C192.058 67.7257 192.124 67.4094 192.124 67.0896C192.124 66.7699 192.061 66.4532 191.935 66.159L190.751 62.9671L186.262 64.6548ZM196.535 82.8463L198.449 82.4139L196.577 74.0533L182.018 77.3099L183.889 85.6705L185.801 85.2442L184.386 78.9027L189.205 77.819L190.473 83.4796L192.385 83.0534L191.124 77.3927L195.115 76.4986L196.535 82.8463ZM200 92.5109L199.959 94.9566L187.956 100.097L199.799 105.746L199.762 107.837L184.842 107.594L184.877 105.527L195.725 105.699L184.954 100.665V99.1553L195.885 94.5125L185.03 94.3347L185.066 92.2681L200 92.5109ZM185.305 123.601C186.346 124.667 187.678 125.402 189.134 125.714C190.111 125.927 191.12 125.945 192.104 125.764C193.089 125.582 194.025 125.207 194.861 124.659C195.696 124.11 196.415 123.401 196.973 122.571C197.533 121.742 197.919 120.809 198.113 119.828C198.406 118.368 198.265 116.853 197.7 115.474C197.135 114.095 196.178 112.914 194.944 112.079C193.71 111.244 192.257 110.792 190.768 110.781C189.277 110.77 187.819 111.2 186.572 112.017C185.327 112.834 184.351 114.001 183.766 115.372C183.182 116.742 183.018 118.255 183.291 119.719C183.565 121.183 184.266 122.534 185.305 123.601ZM185.009 117.181C185.611 114.173 188.525 112.343 191.705 112.989V112.983C192.405 113.124 193.07 113.402 193.661 113.801C194.254 114.2 194.763 114.711 195.158 115.306C195.553 115.901 195.825 116.567 195.963 117.268C196.1 117.969 196.096 118.69 195.956 119.39C195.815 120.09 195.535 120.755 195.137 121.347C194.739 121.939 194.229 122.448 193.634 122.842C193.039 123.237 192.371 123.511 191.671 123.648C190.97 123.785 190.249 123.783 189.549 123.641C186.376 123.002 184.404 120.189 185.009 117.181ZM177.938 133.956L185.156 132.512L186.073 130.144L180.295 127.899L181.046 125.969L194.949 131.375L192.959 136.503C192.765 137.051 192.462 137.555 192.071 137.984C191.68 138.414 191.205 138.761 190.678 139.005C190.149 139.25 189.577 139.386 188.999 139.406C188.418 139.428 187.838 139.333 187.294 139.126C186.378 138.823 185.596 138.21 185.085 137.393C184.571 136.576 184.361 135.605 184.486 134.65L177.044 136.26L177.938 133.956ZM187.904 130.854L186.677 134.016C186.556 134.311 186.495 134.626 186.499 134.945C186.501 135.264 186.567 135.579 186.694 135.871C186.819 136.165 187.001 136.429 187.23 136.651C187.461 136.871 187.732 137.045 188.029 137.16C188.325 137.276 188.643 137.331 188.961 137.323C189.28 137.314 189.594 137.241 189.885 137.11C190.175 136.979 190.435 136.791 190.652 136.557C190.87 136.325 191.038 136.05 191.147 135.751L192.38 132.577L187.904 130.854ZM183.539 151.254L185.251 152.201L189.401 144.705L176.375 137.475L172.229 144.971L173.948 145.925L177.091 140.235L181.419 142.633L178.611 147.701L180.33 148.655L183.137 143.58L186.69 145.564L183.539 151.254ZM153.348 184.501L152.227 182.89L157.557 179.171L155.189 175.814L150.451 179.13L149.333 177.519L154.07 174.204L151.245 170.147L145.916 173.866L144.791 172.254L151.825 167.357L160.381 179.599L153.348 184.501ZM141.149 180.971L134.974 177.49L132.806 178.58L140.878 183.156L139.882 191.725L142.025 190.63L142.784 184.234L148.391 187.409L150.576 186.301L143.026 182.033L144.098 172.852L141.966 173.935L141.149 180.971ZM125.109 192.213C124.915 191.644 124.838 191.044 124.882 190.446C124.927 189.847 125.094 189.266 125.37 188.734C125.647 188.201 126.029 187.732 126.494 187.353C126.957 186.973 127.494 186.691 128.07 186.527L131.545 185.342L129.621 179.622L131.581 178.965L136.318 193.111L130.883 194.935C130.325 195.152 129.73 195.253 129.134 195.233C128.536 195.211 127.95 195.07 127.41 194.814C126.87 194.559 126.387 194.196 125.991 193.749C125.596 193.301 125.296 192.778 125.109 192.213ZM127.051 191.559C127.155 191.875 127.32 192.165 127.539 192.412C127.756 192.661 128.022 192.863 128.321 193.005C128.619 193.149 128.943 193.23 129.272 193.246C129.602 193.261 129.932 193.209 130.242 193.094L133.719 191.91L132.137 187.171L128.661 188.356C128.341 188.454 128.044 188.615 127.786 188.832C127.53 189.047 127.32 189.314 127.17 189.614C127.019 189.912 126.931 190.239 126.91 190.575C126.89 190.909 126.938 191.244 127.051 191.559ZM118.388 184.928L120.792 197.663L122.823 197.278L120.058 182.617L110.821 184.357L111.182 186.289L118.388 184.928ZM95.8404 192.609C95.8101 191.123 96.2191 189.661 97.0159 188.406C97.8129 187.154 98.9622 186.163 100.32 185.559C101.678 184.958 103.183 184.768 104.648 185.018C106.112 185.266 107.471 185.943 108.552 186.961C109.634 187.977 110.391 189.294 110.729 190.741C111.066 192.186 110.969 193.701 110.449 195.094C109.93 196.485 109.01 197.691 107.807 198.562C106.604 199.435 105.17 199.932 103.686 199.991C102.682 200.035 101.68 199.878 100.739 199.529C99.7971 199.18 98.9351 198.644 98.2038 197.956C97.4724 197.268 96.8863 196.441 96.4804 195.522C96.0744 194.604 95.8568 193.611 95.8404 192.609ZM108.814 192.134C108.695 188.901 106.244 186.491 103.171 186.604C100.098 186.715 97.8419 189.291 97.9484 192.525C97.9429 193.259 98.0863 193.989 98.3699 194.666C98.6534 195.344 99.0712 195.956 99.5982 196.47C100.125 196.981 100.751 197.381 101.436 197.644C102.122 197.909 102.854 198.03 103.588 198.004C104.322 197.976 105.044 197.801 105.709 197.489C106.373 197.175 106.968 196.73 107.456 196.181C107.944 195.633 108.316 194.99 108.55 194.294C108.783 193.596 108.873 192.861 108.814 192.129V192.134ZM88.3443 190.357L85.2296 183.69L82.7783 183.376L86.106 190.228C85.146 190.33 84.252 190.766 83.5786 191.458C82.9051 192.149 82.4942 193.054 82.4171 194.018C82.3463 194.595 82.3915 195.18 82.55 195.739C82.7085 196.3 82.977 196.822 83.3399 197.276C83.7028 197.73 84.1525 198.109 84.663 198.386C85.1738 198.665 85.7347 198.839 86.3132 198.896L91.7606 199.619L93.7206 184.815L91.6719 184.543L90.8606 190.695L88.3443 190.357ZM87.2429 192.194L90.6001 192.637L89.9904 197.381L86.6094 196.93C86.2777 196.915 85.9533 196.83 85.6561 196.681C85.359 196.534 85.0959 196.325 84.8834 196.071C84.671 195.815 84.5137 195.519 84.4218 195.2C84.3299 194.881 84.3051 194.546 84.349 194.217C84.393 193.889 84.5049 193.572 84.6775 193.289C84.85 193.005 85.0795 192.761 85.3515 192.57C85.6235 192.38 85.9323 192.247 86.2576 192.182C86.5833 192.119 86.9186 192.123 87.2429 192.194ZM69.1949 195.082L69.71 193.189L75.9805 194.905L77.0581 190.961L71.4686 189.428L71.9896 187.539L77.5791 189.072L78.8819 184.3L72.6172 182.582L73.1324 180.694L81.422 182.956L77.4786 197.346L69.1949 195.082ZM57.5895 190.519L59.7566 191.701L66.7791 178.509L64.9554 177.538L59.8454 187.106L60.71 175.263L59.3717 174.552L49.9749 181.83L55.0849 172.261L53.2613 171.29L46.2386 184.447L48.0801 185.43L58.5014 177.49L57.5895 190.519ZM35.3553 166.486C36.313 165.345 37.5875 164.514 39.0176 164.095C40.4478 163.678 41.9696 163.693 43.3914 164.139C44.813 164.585 46.0709 165.441 47.0059 166.601C47.9412 167.761 48.512 169.172 48.6465 170.656C48.7806 172.141 48.4728 173.63 47.761 174.939C47.0494 176.249 45.9661 177.318 44.6476 178.013C43.3291 178.705 41.8347 178.994 40.3529 178.839C38.8709 178.685 37.4678 178.095 36.3205 177.146C35.5499 176.514 34.9128 175.735 34.4461 174.854C33.9796 173.975 33.693 173.01 33.6033 172.019C33.5134 171.025 33.622 170.025 33.9229 169.076C34.2238 168.126 34.7106 167.246 35.3553 166.486ZM45.368 174.747C47.4286 172.247 47.1917 168.826 44.8232 166.866C42.4548 164.906 39.0443 165.326 36.9835 167.831C36.5109 168.379 36.1524 169.016 35.9294 169.705C35.7061 170.394 35.6227 171.12 35.6839 171.841C35.7453 172.563 35.95 173.265 36.2861 173.905C36.6222 174.546 37.0829 175.114 37.6414 175.575C38.1996 176.034 38.8444 176.38 39.5378 176.586C40.231 176.795 40.9589 176.862 41.6786 176.785C42.3983 176.709 43.0954 176.489 43.729 176.139C44.3625 175.789 44.9199 175.315 45.368 174.747ZM31.2282 159.795L33.3363 152.742L31.7199 150.889L29.6534 158.22C28.868 157.66 27.912 157.393 26.9501 157.461C25.9883 157.53 25.0806 157.932 24.3834 158.599C23.9473 158.984 23.592 159.451 23.3385 159.974C23.0849 160.497 22.9381 161.066 22.9067 161.646C22.8754 162.228 22.96 162.808 23.1556 163.355C23.3512 163.903 23.6539 164.406 24.0459 164.835L27.6343 168.98L38.9319 159.232L37.5819 157.664L32.8862 161.72L31.2282 159.795ZM29.1856 160.435L31.4 162.999L27.7822 166.15L25.5559 163.568C25.34 163.331 25.1737 163.054 25.067 162.751C24.9601 162.449 24.9149 162.129 24.9341 161.809C24.9533 161.489 25.0362 161.176 25.1782 160.889C25.3204 160.601 25.5186 160.345 25.7611 160.136C26.0037 159.926 26.2857 159.768 26.5906 159.67C26.8957 159.571 27.2172 159.535 27.5365 159.562C27.8557 159.59 28.1661 159.682 28.4494 159.831C28.7325 159.981 28.9829 160.186 29.1856 160.435ZM13.7906 150.629L15.4367 149.556L18.9895 155.01L22.4178 152.771L19.2559 147.916L20.8961 146.844L24.0639 151.7L28.2089 149L24.6561 143.551L26.302 142.485L30.9799 149.663L18.4743 157.811L13.7906 150.629ZM2.20876 107.06L0.260694 107.291L1.28506 115.812L16.088 114.036L15.0814 105.527L13.1334 105.758L13.8971 112.212L8.98854 112.804L8.30759 107.049L6.35952 107.28L7.04046 113.035L2.97261 113.514L2.20876 107.06ZM15.105 94.3999L9.12454 98.213L14.9569 102.245L14.9155 104.614L7.31266 99.3559L0 104.057L0.0473615 101.606L5.48301 98.148L0.153939 94.4649L0.201319 92.0549L7.30675 96.9637L15.1405 91.9958L15.105 94.3999ZM8.37781 79.379C7.87104 79.0624 7.30527 78.852 6.71478 78.7609C6.12786 78.6594 5.52646 78.6781 4.947 78.8159C4.36754 78.9538 3.82212 79.2077 3.34378 79.5628C2.86542 79.9175 2.46411 80.3659 2.16419 80.8805C1.86424 81.3951 1.67191 81.9651 1.59886 82.5562L0.663318 88.217L15.3893 90.6505L15.7269 88.6137L9.7701 87.6249L10.3622 84.007C10.4823 83.4217 10.4823 82.8181 10.3621 82.2329C10.2418 81.6476 10.004 81.0927 9.66289 80.6022C9.3218 80.1115 8.8846 79.6954 8.37781 79.379ZM5.40176 80.8095C5.72359 80.7337 6.05739 80.7235 6.38319 80.78C6.71046 80.8319 7.02395 80.9491 7.30506 81.1246C7.58619 81.3 7.82923 81.5301 8.01972 81.8014C8.21025 82.0725 8.34439 82.3791 8.41418 82.703C8.48395 83.0271 8.48796 83.3617 8.42599 83.6872L7.83386 87.3051L2.93705 86.4939L3.52917 82.8761C3.57295 82.5483 3.68239 82.2329 3.85096 81.9485C4.01954 81.6641 4.24377 81.4166 4.51025 81.2209C4.77671 81.0251 5.07995 80.8852 5.40176 80.8095ZM3.91377 72.382L16.2891 76.2309L18.4681 69.2261L20.3391 69.8183L17.5504 78.7948L3.29796 74.3715L3.91377 72.382ZM23.2585 55.7253C22.5181 54.4324 21.4119 53.3875 20.0789 52.722C19.187 52.2705 18.2141 52.0017 17.2171 51.9312C16.22 51.8609 15.219 51.9901 14.2726 52.3117C13.3263 52.6333 12.4536 53.1404 11.7058 53.8036C10.9581 54.467 10.3503 55.2728 9.91805 56.1741C9.26629 57.5138 9.02553 59.0163 9.22604 60.4927C9.42656 61.969 10.0594 63.3529 11.0449 64.4704C12.0304 65.5876 13.3245 66.3885 14.7641 66.7719C16.2039 67.1553 17.7248 67.1041 19.1354 66.6249C20.5461 66.1456 21.7834 65.2596 22.6917 64.0785C23.5999 62.8975 24.1381 61.4741 24.239 59.9876C24.34 58.5011 23.9986 57.0181 23.2585 55.7253ZM21.9381 62.0122C20.5939 64.7656 17.3135 65.8019 14.4004 64.3806L14.4181 64.3925C13.7316 64.11 13.1101 63.69 12.592 63.1581C12.0739 62.6265 11.6701 61.9943 11.4054 61.3006C11.1407 60.6071 11.0208 59.8666 11.0529 59.1249C11.0851 58.3833 11.2687 57.6559 11.5925 56.9877C11.9162 56.3196 12.3732 55.7249 12.9354 55.24C13.4976 54.7551 14.153 54.3904 14.8615 54.1682C15.5699 53.9462 16.3162 53.8714 17.0548 53.9485C17.793 54.0256 18.5077 54.253 19.1551 54.6168C22.0742 56.0319 23.2823 59.259 21.9381 62.0122ZM32.9694 47.5456L25.6151 47.1549L24.1349 49.2154L29.1738 52.8333L27.9895 54.509L15.8629 45.8106L19.0723 41.3401C19.3976 40.8586 19.8158 40.4466 20.3022 40.1285C20.7886 39.8104 21.3335 39.5923 21.9051 39.4867C22.4767 39.3815 23.0637 39.3911 23.6315 39.5153C24.1994 39.6394 24.7367 39.8752 25.2125 40.2094C26.0249 40.7309 26.6299 41.5196 26.9229 42.4395C27.2157 43.3595 27.1785 44.3529 26.8171 45.2481L34.4259 45.5382L32.9694 47.5456ZM22.542 48.0666L24.5196 45.3134C24.7204 45.0578 24.8662 44.7638 24.9482 44.4495C25.0305 44.1351 25.0471 43.8073 24.9971 43.4863C24.9471 43.1653 24.8318 42.858 24.6577 42.5835C24.4841 42.3091 24.2556 42.0734 23.9867 41.8909C23.7271 41.7044 23.4324 41.5725 23.1204 41.503C22.8083 41.4338 22.4854 41.4281 22.1711 41.4867C21.857 41.5454 21.5578 41.667 21.2919 41.8444C21.0259 42.0217 20.7985 42.251 20.6235 42.5185L18.6341 45.2896L22.542 48.0666ZM31.8739 29.402L30.447 28.0577L24.5494 34.2876L35.397 44.5324L41.2827 38.3025L39.8556 36.9583L35.391 41.6958L31.797 38.2966L35.7759 34.0804L34.3549 32.7361L30.3699 36.9524L27.4094 34.1395L31.8739 29.402ZM37.86 21.3054L39.891 19.9315L50.9754 26.8363L48.8378 13.9031L50.5667 12.7188L58.9099 25.0895L57.1927 26.2737L51.1294 17.2785L53.1663 28.9919L51.911 29.8389L41.8449 23.538L47.9082 32.5332L46.197 33.688L37.86 21.3054Z" fill="white"/>
</svg>
