<svg width="20" height="46" viewBox="0 0 20 46" fill="none" xmlns="http://www.w3.org/2000/svg">
<path d="M11.2499 1.75C11.2499 1.05963 10.6903 0.5 9.99989 0.5C9.30951 0.5 8.74989 1.05963 8.74989 1.75H11.2499ZM9.11601 45.1339C9.60414 45.622 10.3956 45.622 10.8838 45.1339L18.8388 37.1789C19.3269 36.6908 19.3269 35.8994 18.8388 35.4111C18.3505 34.923 17.5591 34.923 17.071 35.4111L9.99989 42.4823L2.92877 35.4111C2.44064 34.923 1.64927 34.923 1.16102 35.4111C0.672891 35.8994 0.672891 36.6908 1.16102 37.1789L9.11601 45.1339ZM8.74989 1.75V44.25H11.2499V1.75H8.74989Z" fill="white"/>
</svg>
